<svg width="57" height="58" viewBox="0 0 57 58" fill="none" xmlns="http://www.w3.org/2000/svg">
<g clip-path="url(#clip0_1_927)">
<path d="M52.2791 5.58278C45.1755 -1.52083 32.45 -0.504265 24.007 7.93876C13.6636 18.2813 17.1532 33.6468 7.79997 43C5.7774 45.0226 6.2754 44.5229 6.19422 44.6041C6.19144 44.6094 1.59942 49.1933 1.59509 49.1976C-0.353961 51.1467 -0.353961 54.3159 1.59509 56.2649C3.54414 58.214 6.71321 58.214 8.66237 56.2649C14.9961 49.9311 12.6861 52.25 13.2631 51.673C13.2659 51.6677 14.8629 50.0716 14.8671 50.0673C21.4271 43.5073 30.2871 43.6063 40.2444 39.8251C43.4244 38.6175 46.4729 37.3051 49.9229 33.8547C58.3563 25.4213 59.3863 12.6899 52.2791 5.58278ZM49.9229 7.93876C50.7336 8.74941 51.398 9.6578 51.9454 10.6285L47.5669 15.0069L42.855 10.2949L47.2334 5.91641C48.204 6.46373 49.1124 7.12811 49.9229 7.93876ZM28.719 24.4307L33.431 19.7187L38.143 24.4307L33.431 29.1427L28.719 24.4307ZM31.0749 31.4987L26.7016 35.8721C25.7216 35.3207 24.8095 34.6574 24.0071 33.8547C23.2044 33.0523 22.5411 32.1401 21.9895 31.1603L26.363 26.7867L31.0749 31.4987ZM35.787 17.3628L40.499 12.6507L45.2111 17.3628L40.499 22.0748L35.787 17.3628ZM43.8439 4.59398L40.499 7.93865L37.0389 4.47859C39.3749 4.028 41.6935 4.07254 43.8439 4.59398ZM33.4231 5.575L38.143 10.2946L33.431 15.0067L27.5897 9.16534C29.3998 7.60546 31.3816 6.4092 33.4231 5.575ZM25.2564 11.5443L31.0748 17.3627L26.3629 22.0747L21.6508 17.3627C22.502 15.2779 23.7275 13.3187 25.2564 11.5443ZM20.5645 20.9881L24.007 24.4307L20.6658 27.7719C20.1521 25.6589 20.11 23.355 20.5645 20.9881ZM22.273 41.7269C20.5456 41.6018 19.0582 40.9761 17.9747 39.8925C16.8912 38.809 16.2654 37.3217 16.1404 35.5943C16.8427 33.4941 15.79 37.0929 17.8647 29.7962C18.0311 30.3016 18.1547 30.8259 18.3659 31.31C18.4035 31.441 18.462 31.5599 18.5326 31.68C19.3108 33.3496 20.3316 34.8913 21.6509 36.2109C22.9699 37.5297 24.5114 38.55 26.1799 39.3279C26.3011 39.3991 26.4212 39.4585 26.5531 39.4965C27.0408 39.709 27.5683 39.8339 28.0776 40.0008C20.7739 42.0773 24.3712 41.0251 22.273 41.7269ZM30.0903 37.1955L33.4311 33.8546L36.8732 37.2969C34.5062 37.7509 32.2029 37.7088 30.0903 37.1955ZM40.499 36.2108L35.787 31.4987L40.499 26.7867L46.3174 32.6051C44.543 34.1341 42.5839 35.3597 40.499 36.2108ZM48.6963 30.272L42.8552 24.4307L47.5672 19.7187L52.287 24.4385C51.4525 26.4801 50.2563 28.4619 48.6963 30.272ZM49.923 17.3627L53.2679 14.018C53.7891 16.1682 53.8337 18.4868 53.3832 20.8228L49.923 17.3627ZM8.46657 0.865922C3.87377 0.865922 0.136827 4.60287 0.136827 9.19566C0.136827 13.7885 3.87388 17.5254 8.46657 17.5254C13.0594 17.5254 16.7963 13.7885 16.7963 9.19566C16.7963 4.60287 13.0594 0.865922 8.46657 0.865922Z" fill="#8C8C8C"/>
</g>
<defs>
<clipPath id="clip0_1_927">
<rect width="56.8645" height="56.8645" fill="white" transform="translate(0.133301 0.862061)"/>
</clipPath>
</defs>
</svg>
