<svg width="57" height="58" viewBox="0 0 57 58" fill="none" xmlns="http://www.w3.org/2000/svg">
<g clip-path="url(#clip0_1_974)">
<path d="M56.7183 9.46201L49.2199 16.9604L45.808 13.5485L53.3064 5.97303C53.396 5.8827 53.5026 5.811 53.6201 5.76206C53.7375 5.71313 53.8635 5.68794 53.9907 5.68794C54.1179 5.68794 54.2439 5.71313 54.3614 5.76206C54.4788 5.811 54.5854 5.8827 54.675 5.97303L56.7183 8.0934C56.8086 8.183 56.8803 8.2896 56.9292 8.40705C56.9782 8.5245 57.0034 8.65047 57.0034 8.77771C57.0034 8.90494 56.9782 9.03091 56.9292 9.14836C56.8803 9.26581 56.8086 9.37241 56.7183 9.46201ZM28.0836 0.864868V2.79248H27.1198C26.353 2.79248 25.6175 3.09711 25.0753 3.63935C24.5331 4.1816 24.2284 4.91704 24.2284 5.68389H22.3008C22.3008 4.91704 21.9962 4.1816 21.4539 3.63935C20.9117 3.09711 20.1762 2.79248 19.4094 2.79248H18.4456V1.82867C18.4456 1.57306 18.5471 1.32791 18.7279 1.14716C18.9086 0.966412 19.1538 0.864868 19.4094 0.864868H28.0836ZM14.6964 15.7653C14.4699 15.3182 14.1986 14.8951 13.8868 14.5027L3.16929 25.2106C3.56252 25.5248 3.98466 25.7985 4.43187 26.0298L14.6964 15.7653ZM11.246 12.3245L0.981449 22.5794C1.21276 23.0285 1.48745 23.4545 1.80068 23.8516L12.5182 13.1437C12.122 12.8296 11.6959 12.5552 11.246 12.3245ZM9.23162 11.6113C8.77534 11.5146 8.31015 11.4661 7.84374 11.4667C5.81268 11.5109 3.87709 12.3375 2.44058 13.774C1.00407 15.2105 0.177523 17.1461 0.133301 19.1772C0.133301 19.6436 0.181491 20.1092 0.277872 20.565L9.23162 11.6113ZM6.44622 26.743C6.90576 26.8397 7.37414 26.8882 7.84374 26.8876C9.87479 26.8434 11.8104 26.0168 13.2469 24.5803C14.6834 23.1438 15.51 21.2082 15.5542 19.1772C15.5505 18.7078 15.5021 18.2398 15.4096 17.7796L6.44622 26.743ZM37.7217 1.82867V2.79248H36.7579C35.991 2.79248 35.2556 3.09711 34.7133 3.63935C34.1711 4.1816 33.8665 4.91704 33.8665 5.68389H31.9389C31.9389 4.91704 31.6342 4.1816 31.092 3.63935C30.5497 3.09711 29.8143 2.79248 29.0474 2.79248H28.0836V0.864868H36.7579C37.0135 0.864868 37.2586 0.966412 37.4394 1.14716C37.6201 1.32791 37.7217 1.57306 37.7217 1.82867ZM39.6493 5.68389V12.8932L35.7941 16.7484V5.68389C35.7941 5.42828 35.8956 5.18313 36.0764 5.00238C36.2571 4.82163 36.5023 4.72009 36.7579 4.72009H38.6855C38.9411 4.72009 39.1863 4.82163 39.367 5.00238C39.5478 5.18313 39.6493 5.42828 39.6493 5.68389ZM39.6493 33.3354V55.8017C39.6493 56.0574 39.5478 56.3025 39.367 56.4833C39.1863 56.664 38.9411 56.7655 38.6855 56.7655H36.7579C36.5023 56.7655 36.2571 56.664 36.0764 56.4833C35.8956 56.3025 35.7941 56.0574 35.7941 55.8017V37.1907L39.6493 33.3354ZM30.0112 5.68389V22.5023L26.156 26.3575V5.68389C26.156 5.42828 26.2576 5.18313 26.4383 5.00238C26.6191 4.82163 26.8642 4.72009 27.1198 4.72009H29.0474C29.3031 4.72009 29.5482 4.82163 29.729 5.00238C29.9097 5.18313 30.0112 5.42828 30.0112 5.68389ZM30.0112 42.9735V55.8017C30.0112 56.0574 29.9097 56.3025 29.729 56.4833C29.5482 56.664 29.3031 56.7655 29.0474 56.7655H27.1198C26.8642 56.7655 26.6191 56.664 26.4383 56.4833C26.2576 56.3025 26.156 56.0574 26.156 55.8017V46.8287L30.0112 42.9735ZM20.3732 5.68389V32.1114L16.518 35.9666V5.68389C16.518 5.42828 16.6195 5.18313 16.8003 5.00238C16.981 4.82163 17.2262 4.72009 17.4818 4.72009H19.4094C19.665 4.72009 19.9102 4.82163 20.0909 5.00238C20.2717 5.18313 20.3732 5.42828 20.3732 5.68389ZM20.3732 52.6115V55.8017C20.3732 56.0574 20.2717 56.3025 20.0909 56.4833C19.9102 56.664 19.665 56.7655 19.4094 56.7655H17.4818C17.3196 56.7642 17.1604 56.722 17.0189 56.6429C16.8774 56.5637 16.7581 56.4501 16.6722 56.3126L20.3732 52.6115ZM48.7283 21.5385L13.7904 56.4764C13.7008 56.5667 13.5942 56.6384 13.4768 56.6874C13.3593 56.7363 13.2333 56.7615 13.1061 56.7615C12.9789 56.7615 12.8529 56.7363 12.7355 56.6874C12.618 56.6384 12.5114 56.5667 12.4218 56.4764L6.21491 50.3273C6.0354 50.1467 5.93464 49.9025 5.93464 49.6479C5.93464 49.3932 6.0354 49.1489 6.21491 48.9684L41.2299 14.0401C41.3731 13.8954 41.5584 13.7998 41.7592 13.7669C41.96 13.734 42.1661 13.7655 42.3479 13.857L44.4683 14.9171L47.8706 18.3194L48.9307 20.4205C49.0198 20.6042 49.0482 20.8115 49.0118 21.0125C48.9754 21.2134 48.8762 21.3976 48.7283 21.5385Z" fill="white"/>
<path d="M48.7283 21.5385L13.7903 56.4764C13.7007 56.5667 13.5941 56.6384 13.4767 56.6874C13.3593 56.7363 13.2333 56.7615 13.106 56.7615C12.9788 56.7615 12.8528 56.7363 12.7354 56.6874C12.6179 56.6384 12.5113 56.5667 12.4217 56.4764L6.21484 50.3273C6.03533 50.1467 5.93457 49.9025 5.93457 49.6478C5.93457 49.3932 6.03533 49.1489 6.21484 48.9683L41.2299 14.0401C41.373 13.8954 41.5583 13.7998 41.7591 13.7669C41.96 13.734 42.1661 13.7655 42.3479 13.8569L44.4683 14.9171L47.8705 18.3194L48.9307 20.4204C49.0197 20.6042 49.0481 20.8115 49.0117 21.0124C48.9753 21.2134 48.8761 21.3976 48.7283 21.5385Z" fill="white"/>
</g>
<defs>
<clipPath id="clip0_1_974">
<rect width="56.8645" height="56.8645" fill="white" transform="translate(0.133301 0.383057)"/>
</clipPath>
</defs>
</svg>
