<svg width="57" height="58" viewBox="0 0 57 58" fill="none" xmlns="http://www.w3.org/2000/svg">
<path d="M17.7368 2.46368C14.2133 3.89179 11.0142 6.01608 8.33085 8.70941C5.68664 11.3469 3.58969 14.4809 2.16051 17.9313C0.731336 21.3818 -0.00189574 25.0806 0.00295358 28.8153C0.00295358 32.5074 0.70382 36.1076 2.08512 39.513C3.51305 43.0365 5.63736 46.2357 8.33085 48.9189C11.0136 51.6129 14.2129 53.7373 17.7368 55.1646C21.1347 56.5449 24.7684 57.2518 28.436 57.246C32.1703 57.2504 35.8687 56.517 39.3189 55.088C42.769 53.659 45.9028 51.5625 48.5403 48.9189C51.2347 46.2364 53.3591 43.037 54.7861 39.513C56.1654 36.1153 56.872 32.4823 56.8667 28.8153C56.8667 25.1224 56.1666 21.5222 54.7861 18.1153C53.356 14.589 51.2534 11.4225 48.5403 8.70941C45.8272 5.9963 42.6639 3.8937 39.1344 2.46368C35.7364 1.08477 32.1031 0.378186 28.436 0.383082C24.7431 0.383082 21.1437 1.08316 17.7368 2.46368ZM7.10905 40.7843C5.73953 39.9247 4.47766 38.9347 3.36036 37.7687C1.66011 32.9728 1.36006 27.7921 2.49527 22.832C3.02706 21.7815 3.63582 20.7717 4.31658 19.8109C4.52794 19.5131 4.72359 19.2028 4.94988 18.9136L11.3661 22.7102V22.8713C11.3518 26.3156 11.6976 29.7519 12.3978 33.1242C12.4001 33.14 12.4025 33.1486 12.4056 33.1627L7.42963 40.965C7.32 40.9098 7.21302 40.8495 7.10905 40.7843ZM26.1865 53.9742C27.2872 54.5366 28.4289 55.0147 29.602 55.4043C24.5596 55.6284 19.5571 54.4167 15.1761 51.9101L25.9319 53.8265C26.0144 53.8792 26.0985 53.9295 26.1865 53.9742ZM26.1472 52.0327L13.4546 49.7706C11.9695 47.9674 10.6338 46.0596 9.48587 44.0207C9.19358 43.5021 8.8675 42.9984 8.62 42.4571L13.5913 34.6627C13.7013 34.6902 13.8239 34.7193 13.9629 34.7562C17.0728 35.5883 20.2377 36.1799 23.4246 36.6435C23.6108 36.6694 23.7664 36.6922 23.8992 36.7064L29.8581 47.0096C28.8256 48.4649 27.7761 49.9081 26.7097 51.3389C26.5322 51.577 26.3436 51.8056 26.1472 52.0327ZM47.2643 47.6437C46.2702 48.6392 45.1982 49.5538 44.0586 50.3788C43.873 48.8954 43.5513 47.4322 43.0976 46.0078L49.4557 34.1465C51.2071 33.349 52.8964 32.4446 54.4647 31.3234C54.6698 31.178 54.8403 31.0154 54.9723 30.8378C54.5118 36.9672 51.9425 42.9662 47.2643 47.6437ZM46.9822 32.2607C47.2187 32.7117 47.4521 33.1675 47.6862 33.6295L41.545 45.0853C41.5097 45.0932 41.4759 45.101 41.4405 45.1058C38.1294 45.729 34.7689 46.0521 31.3997 46.0714L25.2711 35.4743C26.2246 33.7026 27.1701 31.9266 28.1076 30.1463C28.744 28.9395 29.3694 27.7247 29.9941 26.5108L42.678 25.2081C44.2314 27.4867 45.7031 29.814 46.9822 32.2607ZM44.409 18.6724C43.8071 20.2619 43.1628 21.8349 42.5225 23.4111L30.1662 24.6801C30.0191 24.4846 29.865 24.2946 29.7041 24.1104C28.2451 22.458 26.7765 20.8159 25.3104 19.169C25.3237 19.1525 25.3371 19.1399 25.3504 19.125C24.7588 18.5341 24.1656 17.9432 23.5739 17.3508L27.0138 6.99417C27.249 6.92895 27.4888 6.88167 27.7312 6.85274C29.6012 6.6626 31.4736 6.44731 33.3483 6.33888C34.4963 6.27445 35.6505 6.23752 36.8181 6.32002L45.3291 15.9129C45.036 16.8385 44.75 17.7665 44.409 18.6724ZM47.2643 9.98543C49.5464 12.2634 51.3937 14.9386 52.7157 17.8796C51.1251 16.7916 49.4227 15.8768 47.6375 15.1508C47.3563 15.037 47.0717 14.9317 46.7842 14.8349L38.4068 5.39286C38.465 4.98507 38.4956 4.5765 38.5082 4.16478C41.7864 5.50073 44.7636 7.47989 47.2643 9.98543ZM19.9085 3.66898C19.9415 3.69334 19.9572 3.71377 19.9761 3.71927C21.8909 4.38085 23.6328 5.35515 25.275 6.51095L22.0614 16.1887C22.045 16.193 22.029 16.1986 22.0135 16.2052C21.3558 16.4771 20.6856 16.7207 20.0382 17.0153C17.3706 18.2277 14.7699 19.5705 12.32 21.1804L5.97839 17.4286C5.98532 17.2313 6.02269 17.0362 6.08918 16.8503C6.51504 15.7157 6.93383 14.5748 7.41548 13.463C7.78777 12.6099 8.20667 11.7779 8.67029 10.9707C11.7331 7.56938 15.6254 5.02031 19.9674 3.57234C19.9478 3.60298 19.9274 3.6352 19.9085 3.66898Z" fill="#8C8C8C"/>
</svg>
