<svg width="1590" height="589" viewBox="0 0 1590 589" fill="none" xmlns="http://www.w3.org/2000/svg">
<rect width="1590" height="588.3" fill="white"/>
<path d="M690.017 321.394V304.54H737.081C742.699 304.54 747.151 303.056 750.437 300.088C753.723 297.014 755.366 292.774 755.366 287.368C755.366 281.75 753.723 277.457 750.437 274.489C747.151 271.521 742.699 270.037 737.081 270.037H692.561V354.784H671.414V251.911H735.173C740.897 251.911 746.25 252.6 751.232 253.978C756.32 255.356 760.719 257.476 764.429 260.338C768.245 263.2 771.213 266.857 773.333 271.309C775.453 275.761 776.513 281.114 776.513 287.368C776.513 293.516 775.453 298.763 773.333 303.109C771.213 307.455 768.245 311.006 764.429 313.762C760.719 316.412 756.32 318.373 751.232 319.645C746.25 320.811 740.897 321.394 735.173 321.394H690.017ZM795.303 243.961H815.973V354.784H795.303V243.961ZM875.357 356.533C867.513 356.533 860.358 354.837 853.892 351.445C847.532 347.947 842.444 343.124 838.628 336.976C834.918 330.722 833.063 323.514 833.063 315.352C833.063 306.978 834.971 299.717 838.787 293.569C842.603 287.421 847.744 282.651 854.21 279.259C860.782 275.761 868.202 274.012 876.47 274.012C885.586 274.012 892.9 275.867 898.412 279.577C904.03 283.181 908.111 288.11 910.655 294.364C913.199 300.618 914.471 307.614 914.471 315.352C914.471 320.016 913.729 324.786 912.245 329.662C910.761 334.432 908.482 338.884 905.408 343.018C902.334 347.046 898.306 350.332 893.324 352.876C888.342 355.314 882.353 356.533 875.357 356.533ZM882.035 340.633C888.289 340.633 893.695 339.573 898.253 337.453C902.811 335.333 906.309 332.365 908.747 328.549C911.185 324.733 912.404 320.334 912.404 315.352C912.404 309.946 911.132 305.388 908.588 301.678C906.15 297.862 902.652 295 898.094 293.092C893.642 291.078 888.289 290.071 882.035 290.071C873.237 290.071 866.4 292.403 861.524 297.067C856.648 301.625 854.21 307.72 854.21 315.352C854.21 320.44 855.376 324.892 857.708 328.708C860.04 332.418 863.273 335.333 867.407 337.453C871.647 339.573 876.523 340.633 882.035 340.633ZM912.404 275.761H933.074V354.784H913.835C913.835 354.784 913.676 353.777 913.358 351.763C913.146 349.643 912.934 346.993 912.722 343.813C912.51 340.633 912.404 337.506 912.404 334.432V275.761ZM944.627 275.761H966.569L1000.75 351.604L982.946 354.784L944.627 275.761ZM1041.3 275.761L986.603 386.584H965.138L988.511 343.018L1019.2 275.761H1041.3ZM1198.69 333.796L1192.01 336.499V251.911H1213.16V354.784H1192.01L1108.86 273.535L1115.53 270.832V354.784H1094.39V251.911H1115.53L1198.69 333.796ZM1281.59 356.692C1271.62 356.692 1262.83 355.102 1255.19 351.922C1247.67 348.742 1241.78 344.131 1237.54 338.089C1233.3 331.941 1231.18 324.415 1231.18 315.511C1231.18 306.607 1233.3 299.081 1237.54 292.933C1241.78 286.679 1247.67 281.962 1255.19 278.782C1262.83 275.602 1271.62 274.012 1281.59 274.012C1291.55 274.012 1300.24 275.602 1307.66 278.782C1315.19 281.962 1321.07 286.679 1325.31 292.933C1329.55 299.081 1331.67 306.607 1331.67 315.511C1331.67 324.415 1329.55 331.941 1325.31 338.089C1321.07 344.131 1315.19 348.742 1307.66 351.922C1300.24 355.102 1291.55 356.692 1281.59 356.692ZM1281.59 340.792C1287.1 340.792 1292.03 339.838 1296.37 337.93C1300.83 335.916 1304.32 333.054 1306.87 329.344C1309.41 325.528 1310.68 320.917 1310.68 315.511C1310.68 310.105 1309.41 305.494 1306.87 301.678C1304.32 297.756 1300.88 294.788 1296.53 292.774C1292.19 290.76 1287.21 289.753 1281.59 289.753C1276.08 289.753 1271.09 290.76 1266.64 292.774C1262.19 294.788 1258.64 297.703 1255.99 301.519C1253.44 305.335 1252.17 309.999 1252.17 315.511C1252.17 320.917 1253.44 325.528 1255.99 329.344C1258.53 333.054 1262.03 335.916 1266.48 337.93C1270.93 339.838 1275.97 340.792 1281.59 340.792ZM1446.88 340.474L1440.36 340.315L1466.12 275.761H1488.86L1454.03 354.784H1434.64L1409.2 291.025H1416.19L1389.96 354.784H1370.56L1336.69 275.761H1359.43L1384.23 340.474H1377.71L1400.93 275.761H1424.62L1446.88 340.474Z" fill="#010000"/>
<path d="M316.315 264.899L147.182 520.52C145.434 523.162 147.329 526.688 150.497 526.688H218.449C219.798 526.688 221.056 526.003 221.788 524.87L280.52 433.93C281.52 432.382 283.453 431.724 285.189 432.341L430.31 483.897C432.048 484.514 433.982 483.855 434.981 482.305L527.896 338.193C529.3 336.016 528.278 333.098 525.822 332.272L320.897 263.325C319.189 262.75 317.309 263.396 316.315 264.899Z" fill="#E73725" stroke="#E73725" stroke-width="3.975"/>
<path d="M343.496 336.462L301.499 407.093C301.094 407.775 301.828 408.565 302.538 408.21L343.541 387.709C343.732 387.614 343.953 387.599 344.155 387.668L406.831 409.213C407.186 409.335 407.578 409.192 407.771 408.87L430.803 370.482C431.057 370.059 430.868 369.51 430.408 369.332L344.466 336.127C344.104 335.987 343.694 336.129 343.496 336.462Z" fill="white" stroke="#E73725" stroke-width="3.975"/>
<path d="M258.102 167.372L174.896 295.964C173.184 298.609 175.083 302.099 178.233 302.099L242.318 302.099C243.657 302.099 244.902 301.432 245.637 300.312C259.965 278.481 287.965 235.853 294.152 226.574C300.297 217.355 309.413 219.766 313.606 222.331C313.889 222.503 314.171 222.649 314.483 222.759C374.951 244.02 500.912 287.805 524.702 294.149C548.552 300.509 563.789 288.849 568.427 282.224L653.927 149.223C655.627 146.578 653.728 143.099 650.583 143.099H586.565C585.175 143.099 583.89 143.819 583.17 145.008C569.53 167.537 543.249 211.341 538.614 220.611C533.844 230.151 524.702 228.561 520.727 226.574C461.102 205.374 334.299 160.986 304.089 153.036C274.466 145.241 261.533 158.466 258.543 166.478C258.426 166.792 258.284 167.091 258.102 167.372Z" fill="#E73725"/>
<circle cx="461.1" cy="111.301" r="47.7" fill="#E73725"/>
</svg>
