<svg width="57" height="58" viewBox="0 0 57 58" fill="none" xmlns="http://www.w3.org/2000/svg">
<g clip-path="url(#clip0_1_959)">
<path d="M26.8709 48.9409C24.5568 46.6268 21.1515 45.9253 18.1851 46.9752C17.8173 51.242 18.4762 54.6888 19.7996 56.0121C21.123 57.3355 24.5708 57.9944 28.8376 57.6244C29.8973 54.609 29.1629 51.2329 26.8709 48.9409ZM45.7269 30.0837C43.0605 27.416 41.7615 23.5004 42.5291 19.5679C37.2745 20.6468 31.411 23.1868 26.8709 27.727C22.3296 32.2682 19.7885 38.1339 18.7107 43.3896C22.4828 42.6321 26.4585 43.8139 29.2276 46.583C32.0249 49.3803 33.1766 53.353 32.4232 57.0988C37.6789 56.021 43.5446 53.4799 48.0848 48.9409C52.6271 44.3985 55.1672 38.5328 56.245 33.2771C52.5282 34.0257 48.5403 32.8971 45.7269 30.0837ZM44.5491 38.3339L42.1913 40.6906L39.8346 38.3339L37.4778 40.6906L39.8346 43.0474L37.4778 45.4052L35.1211 43.0485L32.7633 45.4052L30.4065 43.0474L32.7633 40.6906L30.4065 38.3339L32.7633 35.9761L35.1211 38.3339L37.4778 35.9772L35.12 33.6193L37.4778 31.2626L39.8346 33.6193L42.1913 31.2626L44.5491 33.6193L42.1924 35.9772L44.5491 38.3339ZM55.1561 20.6558C53.8338 19.3335 50.3859 18.6735 46.1203 19.0413C45.1054 21.8997 45.6733 25.3157 48.0848 27.7271C50.4107 30.053 53.8135 30.7365 56.7705 29.6927C56.998 27.0394 56.9303 22.4298 55.1561 20.6558ZM5.20698 8.41991L12.1383 15.3512C7.92483 18.4168 1.78467 18.5224 0.376853 18.5035C1.05576 14.8712 2.66691 11.3811 5.20698 8.41991ZM14.495 12.9945L7.56371 6.06318C10.5249 3.52311 14.015 1.91196 17.6473 1.23305C17.6662 2.64531 17.5595 8.78214 14.495 12.9945ZM19.3051 22.5181L5.20698 36.6151C1.58022 32.3894 -0.149827 27.0848 0.0168438 21.8303C4.54696 22.0215 10.6016 20.7999 14.5183 17.7313L19.3051 22.5181ZM23.3686 26.5814C18.0951 32.4671 16.0917 39.3006 15.3417 43.244C12.4823 42.3726 9.83437 40.9183 7.56482 38.9728L21.663 24.8758L23.3686 26.5814ZM16.8751 15.3745C21.1563 9.90661 21.0141 1.94418 20.9741 0.873045C26.2286 0.706374 31.5332 2.43642 35.7589 6.06318L21.6619 20.1613L16.8751 15.3745ZM42.3868 16.1946C36.9356 17.2246 30.791 19.6869 25.7253 24.2248L24.0197 22.5192L38.1167 8.42102C40.0614 10.6897 41.5153 13.3364 42.3868 16.1946Z" fill="#8C8C8C"/>
</g>
<defs>
<clipPath id="clip0_1_959">
<rect width="56.8645" height="56.8645" fill="white" transform="translate(0.00244141 0.862061)"/>
</clipPath>
</defs>
</svg>
